<?xml version="1.0" encoding="UTF-8"?>
<svg id="Layer_2" data-name="Layer 2" xmlns="http://www.w3.org/2000/svg" viewBox="0 0 92.37 106.51">
  <defs>
    <style>
      .cls-1 {
        fill: #9292ad;
      }
    </style>
  </defs>
  <path class="cls-1" d="m83.1,66.93c-7.48-13.11,7.32-26.13,2.5-39.72-3.68-10.37-16.84-15.66-28.29-17.73-.11-1.5-.51-3.16-1.53-4.69-3.75-5.62-13.85-6.54-18.32-1.45-1.37,1.56-2.36,3.86-2.44,6.07-13.18,2.33-26.39,8.7-29.15,18.76-3.25,11.84,10.25,20.44,5.53,33.75-3.36,9.46-12.35,11.26-11.33,15.33.96,3.81,9.63,5.35,44.15,5.24,40.87-.13,47.54-2.33,48.1-5.28.55-2.93-5.48-3.7-9.23-10.28Z"/>
  <path class="cls-1" d="m48.4,106.29c8.6-1.37,15.66-9.26,16.24-19.06l-38.82.71c1.4,11.98,12.27,19.99,22.59,18.35Z"/>
</svg>