<?xml version="1.0" encoding="UTF-8"?>
<svg id="Layer_1" data-name="Layer 1" xmlns="http://www.w3.org/2000/svg" viewBox="0 0 368.52 175.88">
  <defs>
    <style>
      .cls-1 {
        fill: #999;
      }
    </style>
  </defs>
  <ellipse class="cls-1" cx="128.59" cy="23.7" rx="17.9" ry="16.94"/>
  <ellipse class="cls-1" cx="24.53" cy="23.7" rx="17.9" ry="16.94"/>
  <path class="cls-1" d="m143.59,50.28c-9.98-7.28-24.61-8.19-35.06-.26-4.73,3.59-8.08,8.6-9.83,14.2-13.02-6.4-29.24-6.86-42.57.25-2.15-5.23-5.71-9.82-10.46-13.09-10.18-7-24.83-7.51-35.06.71C-.6,61.1-3.52,78.16,4.72,91.62l30.24-.98c-3.91,12.83-2.48,27.61,5.3,40.36l79.34-.65c6.42-13.58,6.6-28.47,1.74-41.08l31.07-.15c6.83-13.85,2.81-30.36-8.82-38.84Z"/>
  <ellipse class="cls-1" cx="76.56" cy="26.64" rx="28.15" ry="26.64"/>
</svg>